<svg width="2048" height="928" viewBox="0 0 2048 928" fill="none" xmlns="http://www.w3.org/2000/svg">
<path d="M117.427 770.391C110.336 770.391 104.299 765.296 103.198 758.38L0.176037 111.658C-0.899947 104.904 3.04583 98.3493 9.56997 96.0539L97.1119 65.2549C105.72 62.2264 114.972 67.775 116.217 76.7125L180.46 537.877C181.55 545.707 192.828 546.199 194.615 538.496L293.777 111.057C295.277 104.594 301.102 100.012 307.818 100.012H408.978C415.721 100.012 421.561 104.629 423.034 111.125L519.823 537.922C521.576 545.653 532.892 545.186 533.986 537.337L598.17 76.5949C599.409 67.6957 608.593 62.1467 617.184 65.1057L707.139 96.0875C713.731 98.3579 717.725 104.968 716.616 111.773L611.209 758.43C610.085 765.323 604.06 770.391 596.988 770.391H468.391C461.499 770.391 455.572 765.572 454.253 758.894L364.254 303.384C362.74 295.719 351.631 295.719 350.116 303.384L260.117 758.894C258.798 765.572 252.871 770.391 245.979 770.391H117.427Z" fill="#684BFF"/>
<path d="M1349.12 770.391C1339.22 770.391 1331.2 764.069 1331.2 756.27V79.2588C1331.2 71.4596 1339.22 65.1371 1349.12 65.1371H1492.52C1573.68 65.1371 1840.01 59.3025 1892.77 78.5212C1945.53 97.0536 1984.59 122.792 2009.95 155.739C2035.32 188.685 2048 226.436 2048 268.991C2048 311.547 2035.32 349.297 2009.95 382.244C1984.59 415.19 1945.53 441.272 1892.77 460.491C1840.01 479.023 1773.05 488.29 1691.88 488.29H1510.44C1500.54 488.29 1492.52 494.612 1492.52 502.411V756.27C1492.52 764.069 1484.49 770.391 1474.6 770.391H1349.12ZM1492.52 376.359C1492.52 384.158 1500.54 390.48 1510.44 390.48H1684.27C1753.26 390.48 1803.49 379.498 1834.94 357.534C1867.4 335.57 1883.64 306.056 1883.64 268.991C1883.64 232.613 1867.4 203.442 1834.94 181.478C1803.49 158.827 1753.26 147.502 1684.27 147.502H1510.44C1500.54 147.502 1492.52 153.825 1492.52 161.624V376.359Z" fill="#684BFF"/>
<path d="M1016.06 770.391C1005.78 770.391 994.918 763.872 994.918 755.831V418.42C994.918 389.383 979.82 374.864 949.62 374.864H806.46C794.868 374.864 786.094 366.665 788.136 357.74L809.074 266.213C810.653 259.308 818.304 254.265 827.273 254.218L976.516 253.435C1035.03 253.435 1077.49 266.194 1103.91 291.711C1131.28 316.349 1144.97 355.946 1144.97 410.501L1146.24 755.723C1146.11 763.689 1137.83 770.391 1127.64 770.391H1016.06Z" fill="#5BCC25"/>
<path d="M969.988 162.286C989.848 180.182 1014.26 189.13 1043.22 189.13C1073.01 189.13 1097.42 180.182 1116.45 162.286C1136.31 143.576 1146.24 120.799 1146.24 93.9551C1146.24 67.1108 1136.31 44.7406 1116.45 26.8443C1097.42 8.94811 1073.01 0 1043.22 0C1014.26 0 989.848 8.94811 969.988 26.8443C950.955 44.7406 941.44 67.1108 941.44 93.9551C941.44 120.799 950.955 143.576 969.988 162.286Z" fill="#5BCC25"/>
<path d="M134.719 927.338C132.605 927.338 130.893 927.117 129.584 926.676C128.275 926.234 127.47 925.439 127.168 924.292L102.702 839.13C102.601 838.688 102.501 838.335 102.4 838.07C102.4 837.717 102.4 837.408 102.4 837.143C102.4 835.112 105.169 834.097 110.706 834.097H113.727C116.244 834.097 118.258 834.362 119.768 834.892C121.278 835.421 122.184 836.304 122.486 837.541L136.078 886.28C136.682 888.399 137.236 890.827 137.74 893.564C138.243 896.213 138.696 898.906 139.099 901.644C139.502 904.292 139.753 906.676 139.854 908.796H140.458C140.861 906.5 141.314 904.072 141.817 901.511C142.421 898.951 142.975 896.478 143.479 894.094C144.083 891.71 144.636 889.591 145.14 887.737L159.638 836.746C159.839 835.686 160.595 834.98 161.903 834.627C163.212 834.274 164.924 834.097 167.038 834.097H171.72C173.734 834.097 175.395 834.274 176.704 834.627C178.013 834.98 178.818 835.686 179.12 836.746L192.863 886.28C193.568 888.752 194.223 891.401 194.827 894.227C195.431 897.052 195.934 899.745 196.337 902.306C196.84 904.866 197.142 907.03 197.243 908.796H197.847C198.149 906.853 198.502 904.646 198.904 902.173C199.408 899.701 199.962 897.185 200.566 894.624C201.17 892.063 201.774 889.768 202.378 887.737L216.272 837.541C216.574 836.304 217.48 835.421 218.991 834.892C220.601 834.362 222.615 834.097 225.031 834.097H226.391C231.928 834.097 234.697 835.112 234.697 837.143C234.697 837.32 234.697 837.585 234.697 837.938C234.697 838.291 234.596 838.688 234.395 839.13L209.476 924.292C209.174 925.439 208.268 926.234 206.758 926.676C205.348 927.117 203.687 927.338 201.774 927.338H192.41C190.497 927.338 188.786 927.117 187.275 926.676C185.866 926.234 185.01 925.439 184.708 924.292L172.475 880.982C172.072 879.305 171.468 876.656 170.663 873.036C169.958 869.327 169.304 865.575 168.7 861.778H168.095C167.592 864.956 167.038 868.268 166.434 871.711C165.83 875.066 165.226 877.627 164.622 879.393L151.785 924.292C151.382 925.439 150.426 926.234 148.915 926.676C147.506 927.117 145.895 927.338 144.083 927.338H134.719Z" fill="#5BCC25"/>
<path d="M294.444 928C279.04 928 267.209 923.938 258.953 915.815C250.697 907.692 246.569 895.993 246.569 880.717C246.569 865.266 250.697 853.522 258.953 845.487C267.209 837.452 279.04 833.435 294.444 833.435C309.849 833.435 321.628 837.452 329.784 845.487C338.04 853.522 342.168 865.266 342.168 880.717C342.168 895.993 338.04 907.692 329.784 915.815C321.628 923.938 309.849 928 294.444 928ZM294.444 913.166C303.405 913.166 310.201 910.385 314.832 904.822C319.464 899.26 321.779 891.18 321.779 880.585C321.779 870.078 319.464 862.087 314.832 856.612C310.201 851.05 303.405 848.269 294.444 848.269C285.483 848.269 278.637 851.05 273.905 856.612C269.273 862.087 266.958 870.078 266.958 880.585C266.958 891.18 269.273 899.26 273.905 904.822C278.637 910.385 285.483 913.166 294.444 913.166Z" fill="#5BCC25"/>
<path d="M372.926 927.338C367.59 927.338 364.922 926.057 364.922 923.497V839.262C364.922 835.995 366.734 834.362 370.359 834.362H398.449C411.035 834.362 420.348 836.393 426.389 840.454C432.53 844.516 435.601 850.608 435.601 858.732C435.601 864.029 433.99 868.488 430.769 872.109C427.547 875.729 423.318 878.466 418.083 880.32V880.85C420.398 881.556 422.563 883.19 424.577 885.75C426.59 888.223 428.352 891.136 429.862 894.492L442.699 922.57C443.102 923.629 443.304 924.38 443.304 924.821C443.304 926.499 440.585 927.338 435.148 927.338H430.617C428.604 927.338 426.892 927.161 425.483 926.808C424.073 926.366 423.167 925.704 422.764 924.821L410.984 898.862C409.273 895.33 407.209 892.858 404.792 891.445C402.376 889.944 398.5 889.194 393.164 889.194H384.706V923.497C384.706 926.057 382.038 927.338 376.702 927.338H372.926ZM384.706 874.228H401.017C403.635 874.228 406.001 873.654 408.115 872.506C410.33 871.27 412.042 869.68 413.25 867.738C414.559 865.707 415.213 863.5 415.213 861.116C415.213 857.231 413.803 854.273 410.984 852.242C408.266 850.211 404.591 849.196 399.96 849.196H384.706V874.228Z" fill="#5BCC25"/>
<path d="M468.46 927.338C463.124 927.338 460.456 926.057 460.456 923.497V837.938C460.456 835.377 463.124 834.097 468.46 834.097H472.236C477.673 834.097 480.391 835.377 480.391 837.938V875.155H480.995L510.898 836.349C511.603 835.466 512.71 834.892 514.22 834.627C515.831 834.274 517.644 834.097 519.657 834.097H524.943C529.776 834.097 532.192 834.715 532.192 835.951C532.192 836.746 531.79 837.673 530.984 838.733L498.816 878.598L536.27 922.835C537.075 923.806 537.478 924.645 537.478 925.351C537.478 926.676 534.86 927.338 529.625 927.338H523.282C521.268 927.338 519.456 927.205 517.845 926.94C516.335 926.676 515.177 926.057 514.371 925.086L480.995 884.028L480.391 884.161V923.497C480.391 926.057 477.673 927.338 472.236 927.338H468.46Z" fill="#5BCC25"/>
<path d="M597.865 927.47C592.529 927.47 589.861 926.146 589.861 923.497V837.938C589.861 835.289 592.529 833.965 597.865 833.965H601.792C607.128 833.965 609.796 835.289 609.796 837.938V923.497C609.796 926.146 607.128 927.47 601.792 927.47H597.865Z" fill="#684BFF"/>
<path d="M642.784 927.073C639.058 927.073 637.196 925.439 637.196 922.172V839.262C637.196 835.995 639.058 834.362 642.784 834.362H674.499C684.265 834.362 692.722 836.04 699.871 839.395C707.019 842.75 712.506 847.871 716.332 854.758C720.259 861.557 722.222 870.21 722.222 880.717C722.222 888.576 721.115 895.419 718.9 901.246C716.685 907.074 713.463 911.886 709.234 915.683C705.106 919.479 700.122 922.349 694.283 924.292C688.443 926.146 681.848 927.073 674.499 927.073H642.784ZM657.131 912.239H674.046C679.784 912.239 684.718 911.135 688.846 908.928C693.075 906.632 696.296 903.145 698.511 898.465C700.726 893.785 701.834 887.869 701.834 880.717C701.834 873.565 700.726 867.65 698.511 862.97C696.296 858.29 693.075 854.847 688.846 852.639C684.718 850.344 679.784 849.196 674.046 849.196H657.131V912.239Z" fill="#684BFF"/>
<path d="M751.3 927.073C747.574 927.073 745.712 925.439 745.712 922.172V839.262C745.712 835.995 747.574 834.362 751.3 834.362H804.158C806.876 834.362 808.236 836.26 808.236 840.057V843.501C808.236 847.297 806.876 849.196 804.158 849.196H765.496V872.241H799.929C802.648 872.241 804.007 874.139 804.007 877.936V881.38C804.007 885.176 802.648 887.075 799.929 887.075H765.496V912.239H804.309C807.027 912.239 808.387 914.137 808.387 917.934V921.378C808.387 925.174 807.027 927.073 804.309 927.073H751.3Z" fill="#684BFF"/>
<path d="M838.308 927.338C832.971 927.338 830.303 926.057 830.303 923.497V837.938C830.303 835.377 832.971 834.097 838.308 834.097H843.744C845.758 834.097 847.47 834.318 848.879 834.759C850.289 835.112 851.447 835.951 852.353 837.276L891.015 889.061C892.122 890.386 893.079 891.71 893.884 893.035C894.791 894.271 895.596 895.595 896.301 897.008L896.905 896.876C896.804 895.374 896.703 894.006 896.603 892.77C896.603 891.445 896.603 889.812 896.603 887.869V837.938C896.603 835.377 899.271 834.097 904.607 834.097H907.93C913.266 834.097 915.934 835.377 915.934 837.938V923.497C915.934 926.057 913.266 927.338 907.93 927.338H903.097C901.184 927.338 899.523 927.161 898.113 926.808C896.804 926.366 895.697 925.528 894.791 924.292L855.222 871.579C854.215 870.254 853.259 868.974 852.353 867.738C851.547 866.502 850.742 865.177 849.936 863.764L849.332 863.897C849.534 865.398 849.634 866.811 849.634 868.135C849.634 869.371 849.634 870.961 849.634 872.903V923.497C849.634 926.057 846.966 927.338 841.63 927.338H838.308Z" fill="#684BFF"/>
<path d="M970.298 927.338C964.962 927.338 962.294 926.057 962.294 923.497V849.196H936.62C933.902 849.196 932.542 847.297 932.542 843.501V840.057C932.542 836.26 933.902 834.362 936.62 834.362H1007.75C1010.47 834.362 1011.83 836.26 1011.83 840.057V843.501C1011.83 847.297 1010.47 849.196 1007.75 849.196H982.229V923.497C982.229 926.057 979.561 927.338 974.225 927.338H970.298Z" fill="#684BFF"/>
<path d="M1036.3 927.47C1030.97 927.47 1028.3 926.146 1028.3 923.497V837.938C1028.3 835.289 1030.97 833.965 1036.3 833.965H1040.23C1045.57 833.965 1048.23 835.289 1048.23 837.938V923.497C1048.23 926.146 1045.57 927.47 1040.23 927.47H1036.3Z" fill="#684BFF"/>
<path d="M1102.67 927.338C1097.33 927.338 1094.66 926.057 1094.66 923.497V849.196H1068.99C1066.27 849.196 1064.91 847.297 1064.91 843.501V840.057C1064.91 836.26 1066.27 834.362 1068.99 834.362H1140.12C1142.84 834.362 1144.2 836.26 1144.2 840.057V843.501C1144.2 847.297 1142.84 849.196 1140.12 849.196H1114.6V923.497C1114.6 926.057 1111.93 927.338 1106.59 927.338H1102.67Z" fill="#684BFF"/>
<path d="M1189.66 927.338C1184.33 927.338 1181.66 926.057 1181.66 923.497V881.512L1151.15 839.66C1150.15 838.335 1149.64 837.32 1149.64 836.613C1149.64 835.819 1150.35 835.201 1151.76 834.759C1153.17 834.318 1155.38 834.097 1158.4 834.097H1163.24C1165.25 834.097 1166.91 834.274 1168.22 834.627C1169.63 834.892 1170.69 835.51 1171.39 836.481L1192.08 866.281L1212.92 836.349C1213.63 835.466 1214.68 834.892 1216.09 834.627C1217.5 834.274 1219.22 834.097 1221.23 834.097H1225.16C1230.69 834.097 1233.46 834.936 1233.46 836.613C1233.46 836.967 1233.31 837.408 1233.01 837.938C1232.81 838.468 1232.51 839.042 1232.1 839.66L1201.44 881.909V923.497C1201.44 926.057 1198.78 927.338 1193.44 927.338H1189.66Z" fill="#684BFF"/>
<path d="M1296.03 927.338C1290.69 927.338 1288.02 926.057 1288.02 923.497V839.262C1288.02 835.995 1289.83 834.362 1293.46 834.362H1324.87C1328.09 834.362 1331.72 834.715 1335.75 835.421C1339.87 836.039 1343.75 837.32 1347.37 839.262C1351.1 841.117 1354.12 843.898 1356.44 847.606C1358.75 851.315 1359.91 856.215 1359.91 862.308C1359.91 867.34 1359 871.579 1357.19 875.022C1355.48 878.378 1353.21 881.115 1350.4 883.234C1347.68 885.265 1344.76 886.854 1341.64 888.002C1338.51 889.061 1335.6 889.812 1332.88 890.253C1330.16 890.607 1327.99 890.783 1326.38 890.783H1307.81V923.497C1307.81 926.057 1305.14 927.338 1299.8 927.338H1296.03ZM1307.81 875.817H1324.72C1326.13 875.817 1327.69 875.64 1329.4 875.287C1331.22 874.934 1332.88 874.272 1334.39 873.3C1335.9 872.329 1337.16 870.961 1338.16 869.195C1339.17 867.429 1339.67 865.133 1339.67 862.308C1339.67 858.687 1338.82 855.95 1337.11 854.096C1335.39 852.242 1333.33 850.962 1330.91 850.255C1328.6 849.549 1326.28 849.196 1323.97 849.196H1307.81V875.817Z" fill="#5BCC25"/>
<path d="M1386.12 927.338C1380.78 927.338 1378.11 926.057 1378.11 923.497V839.262C1378.11 835.995 1379.93 834.362 1383.55 834.362H1411.64C1424.23 834.362 1433.54 836.393 1439.58 840.454C1445.72 844.516 1448.79 850.608 1448.79 858.732C1448.79 864.029 1447.18 868.488 1443.96 872.109C1440.74 875.729 1436.51 878.466 1431.27 880.32V880.85C1433.59 881.556 1435.75 883.19 1437.77 885.75C1439.78 888.223 1441.54 891.136 1443.05 894.492L1455.89 922.57C1456.29 923.629 1456.49 924.38 1456.49 924.821C1456.49 926.499 1453.78 927.338 1448.34 927.338H1443.81C1441.8 927.338 1440.08 927.161 1438.67 926.808C1437.26 926.366 1436.36 925.704 1435.96 924.821L1424.18 898.862C1422.46 895.33 1420.4 892.858 1417.98 891.445C1415.57 889.944 1411.69 889.194 1406.35 889.194H1397.9V923.497C1397.9 926.057 1395.23 927.338 1389.89 927.338H1386.12ZM1397.9 874.228H1414.21C1416.83 874.228 1419.19 873.654 1421.31 872.506C1423.52 871.27 1425.23 869.68 1426.44 867.738C1427.75 865.707 1428.4 863.5 1428.4 861.116C1428.4 857.231 1426.99 854.273 1424.18 852.242C1421.46 850.211 1417.78 849.196 1413.15 849.196H1397.9V874.228Z" fill="#5BCC25"/>
<path d="M1515.52 928C1500.11 928 1488.28 923.938 1480.03 915.815C1471.77 907.692 1467.64 895.993 1467.64 880.717C1467.64 865.266 1471.77 853.522 1480.03 845.487C1488.28 837.452 1500.11 833.435 1515.52 833.435C1530.92 833.435 1542.7 837.452 1550.86 845.487C1559.11 853.522 1563.24 865.266 1563.24 880.717C1563.24 895.993 1559.11 907.692 1550.86 915.815C1542.7 923.938 1530.92 928 1515.52 928ZM1515.52 913.166C1524.48 913.166 1531.27 910.385 1535.9 904.822C1540.54 899.26 1542.85 891.18 1542.85 880.585C1542.85 870.078 1540.54 862.087 1535.9 856.612C1531.27 851.05 1524.48 848.269 1515.52 848.269C1506.56 848.269 1499.71 851.05 1494.98 856.612C1490.35 862.087 1488.03 870.078 1488.03 880.585C1488.03 891.18 1490.35 899.26 1494.98 904.822C1499.71 910.385 1506.56 913.166 1515.52 913.166Z" fill="#5BCC25"/>
<path d="M1610.68 927.338C1605.35 927.338 1602.68 926.057 1602.68 923.497V849.196H1577C1574.29 849.196 1572.93 847.297 1572.93 843.501V840.057C1572.93 836.26 1574.29 834.362 1577 834.362H1648.14C1650.85 834.362 1652.21 836.26 1652.21 840.057V843.501C1652.21 847.297 1650.85 849.196 1648.14 849.196H1622.61V923.497C1622.61 926.057 1619.94 927.338 1614.61 927.338H1610.68Z" fill="#5BCC25"/>
<path d="M1709.68 928C1694.28 928 1682.45 923.938 1674.19 915.815C1665.93 907.692 1661.81 895.993 1661.81 880.717C1661.81 865.266 1665.93 853.522 1674.19 845.487C1682.45 837.452 1694.28 833.435 1709.68 833.435C1725.09 833.435 1736.87 837.452 1745.02 845.487C1753.28 853.522 1757.4 865.266 1757.4 880.717C1757.4 895.993 1753.28 907.692 1745.02 915.815C1736.87 923.938 1725.09 928 1709.68 928ZM1709.68 913.166C1718.64 913.166 1725.44 910.385 1730.07 904.822C1734.7 899.26 1737.02 891.18 1737.02 880.585C1737.02 870.078 1734.7 862.087 1730.07 856.612C1725.44 851.05 1718.64 848.269 1709.68 848.269C1700.72 848.269 1693.87 851.05 1689.14 856.612C1684.51 862.087 1682.19 870.078 1682.19 880.585C1682.19 891.18 1684.51 899.26 1689.14 904.822C1693.87 910.385 1700.72 913.166 1709.68 913.166Z" fill="#5BCC25"/>
<path d="M1825.01 928C1808.2 928 1795.76 924.159 1787.71 916.477C1779.66 908.796 1775.63 896.831 1775.63 880.585C1775.63 849.151 1792.29 833.435 1825.62 833.435C1828.84 833.435 1832.16 833.656 1835.59 834.097C1839.01 834.45 1842.18 835.024 1845.1 835.819C1848.02 836.525 1850.44 837.364 1852.35 838.335C1854.87 839.66 1856.12 840.984 1856.12 842.309C1856.12 843.368 1855.67 844.781 1854.76 846.547C1853.86 848.224 1852.75 849.725 1851.44 851.05C1850.23 852.374 1849.08 853.037 1847.97 853.037C1847.47 853.037 1846.31 852.639 1844.5 851.845C1842.78 851.05 1840.37 850.255 1837.25 849.461C1834.13 848.666 1830.15 848.269 1825.32 848.269C1815.35 848.269 1807.95 850.917 1803.11 856.215C1798.38 861.513 1796.02 869.68 1796.02 880.717C1796.02 891.578 1798.38 899.701 1803.11 905.087C1807.95 910.473 1815.25 913.166 1825.01 913.166C1829.95 913.166 1834.13 912.725 1837.55 911.842C1840.97 910.87 1843.74 909.899 1845.85 908.928C1848.07 907.957 1849.48 907.471 1850.08 907.471C1851.39 907.471 1852.65 908.177 1853.86 909.59C1855.07 910.915 1856.02 912.372 1856.73 913.961C1857.43 915.55 1857.79 916.698 1857.79 917.404C1857.79 918.464 1857.33 919.479 1856.43 920.451C1855.52 921.334 1854.26 922.172 1852.65 922.967C1850.44 924.027 1847.77 924.954 1844.65 925.748C1841.53 926.455 1838.25 926.985 1834.83 927.338C1831.41 927.779 1828.13 928 1825.01 928Z" fill="#5BCC25"/>
<path d="M1917.41 928C1902.01 928 1890.18 923.938 1881.92 915.815C1873.67 907.692 1869.54 895.993 1869.54 880.717C1869.54 865.266 1873.67 853.522 1881.92 845.487C1890.18 837.452 1902.01 833.435 1917.41 833.435C1932.82 833.435 1944.6 837.452 1952.75 845.487C1961.01 853.522 1965.14 865.266 1965.14 880.717C1965.14 895.993 1961.01 907.692 1952.75 915.815C1944.6 923.938 1932.82 928 1917.41 928ZM1917.41 913.166C1926.38 913.166 1933.17 910.385 1937.8 904.822C1942.43 899.26 1944.75 891.18 1944.75 880.585C1944.75 870.078 1942.43 862.087 1937.8 856.612C1933.17 851.05 1926.38 848.269 1917.41 848.269C1908.45 848.269 1901.61 851.05 1896.88 856.612C1892.24 862.087 1889.93 870.078 1889.93 880.585C1889.93 891.18 1892.24 899.26 1896.88 904.822C1901.61 910.385 1908.45 913.166 1917.41 913.166Z" fill="#5BCC25"/>
<path d="M1994.08 927.073C1990.36 927.073 1988.5 925.439 1988.5 922.172V837.938C1988.5 835.377 1991.16 834.097 1996.5 834.097H2000.28C2005.61 834.097 2008.28 835.377 2008.28 837.938V912.239H2044.07C2046.69 912.239 2048 914.137 2048 917.934V921.378C2048 925.174 2046.69 927.073 2044.07 927.073H1994.08Z" fill="#5BCC25"/>
</svg>
