<svg width="2048" height="771" viewBox="0 0 2048 771" fill="none" xmlns="http://www.w3.org/2000/svg">
<path d="M117.427 770.391C110.336 770.391 104.299 765.296 103.198 758.38L0.176037 111.658C-0.899947 104.904 3.04583 98.3493 9.56997 96.0539L97.1119 65.2549C105.72 62.2264 114.972 67.775 116.217 76.7125L180.46 537.877C181.55 545.707 192.828 546.199 194.615 538.495L293.777 111.057C295.277 104.594 301.102 100.012 307.818 100.012H408.978C415.721 100.012 421.561 104.629 423.034 111.125L519.823 537.922C521.576 545.653 532.892 545.186 533.986 537.337L598.169 76.5949C599.409 67.6957 608.593 62.1467 617.184 65.1057L707.139 96.0875C713.731 98.3579 717.725 104.968 716.616 111.773L611.209 758.43C610.085 765.323 604.06 770.391 596.988 770.391H468.391C461.499 770.391 455.572 765.572 454.253 758.893L364.254 303.384C362.74 295.719 351.631 295.719 350.116 303.384L260.117 758.893C258.798 765.572 252.871 770.391 245.979 770.391H117.427Z" fill="#684BFF"/>
<path d="M1349.12 770.391C1339.22 770.391 1331.2 764.069 1331.2 756.27V79.2588C1331.2 71.4596 1339.22 65.1371 1349.12 65.1371H1492.52C1573.68 65.1371 1840.01 59.3025 1892.77 78.5212C1945.53 97.0536 1984.59 122.792 2009.95 155.739C2035.32 188.685 2048 226.436 2048 268.991C2048 311.547 2035.32 349.297 2009.95 382.244C1984.59 415.19 1945.53 441.272 1892.77 460.491C1840.01 479.023 1773.05 488.29 1691.88 488.29H1510.44C1500.54 488.29 1492.52 494.612 1492.52 502.411V756.27C1492.52 764.069 1484.49 770.391 1474.6 770.391H1349.12ZM1492.52 376.359C1492.52 384.158 1500.54 390.48 1510.44 390.48H1684.27C1753.26 390.48 1803.49 379.498 1834.94 357.534C1867.4 335.57 1883.64 306.056 1883.64 268.991C1883.64 232.613 1867.4 203.442 1834.94 181.478C1803.49 158.827 1753.26 147.502 1684.27 147.502H1510.44C1500.54 147.502 1492.52 153.825 1492.52 161.624V376.359Z" fill="#684BFF"/>
<path d="M1016.06 770.391C1005.78 770.391 994.918 763.872 994.918 755.831V418.42C994.918 389.383 979.82 374.864 949.62 374.864H806.46C794.868 374.864 786.094 366.665 788.136 357.74L809.074 266.213C810.653 259.308 818.304 254.265 827.273 254.218L976.516 253.435C1035.03 253.435 1077.49 266.194 1103.91 291.711C1131.28 316.349 1144.97 355.946 1144.97 410.501L1146.24 755.723C1146.11 763.689 1137.83 770.391 1127.64 770.391H1016.06Z" fill="#5BCC25"/>
<path d="M969.988 162.286C989.848 180.182 1014.26 189.13 1043.22 189.13C1073.01 189.13 1097.42 180.182 1116.45 162.286C1136.31 143.576 1146.24 120.799 1146.24 93.9551C1146.24 67.1108 1136.31 44.7406 1116.45 26.8443C1097.42 8.94811 1073.01 0 1043.22 0C1014.26 0 989.848 8.94811 969.988 26.8443C950.955 44.7406 941.44 67.1108 941.44 93.9551C941.44 120.799 950.955 143.576 969.988 162.286Z" fill="#5BCC25"/>
</svg>
